<svg width="22" height="22" viewBox="0 0 22 22" fill="none" xmlns="http://www.w3.org/2000/svg">
<path d="M3.45312 18.3008C4.27344 17.3242 5.13281 16.25 6.03125 15.0781C6.92969 13.8672 7.78906 12.6367 8.60938 11.3867C7.71094 10.5664 6.79297 9.70703 5.85547 8.80859C4.95703 7.91016 4.13672 7.05078 3.39453 6.23047C2.69141 5.41016 2.10547 4.64844 1.63672 3.94531C1.16797 3.24219 0.933594 2.67578 0.933594 2.24609C0.933594 1.81641 1.07031 1.48438 1.34375 1.25C1.61719 0.976562 1.94922 0.839844 2.33984 0.839844C2.73047 0.839844 3.19922 1.05469 3.74609 1.48438C4.29297 1.91406 4.89844 2.5 5.5625 3.24219C6.26562 3.94531 7.04688 4.76562 7.90625 5.70312C8.76562 6.60156 9.70312 7.51953 10.7188 8.45703C11.2656 7.59766 11.793 6.69922 12.3008 5.76172C12.8086 4.82422 13.2969 3.98438 13.7656 3.24219C14.2344 2.46094 14.6836 1.81641 15.1133 1.30859C15.582 0.800781 16.0508 0.546875 16.5195 0.546875C16.9492 0.546875 17.2812 0.703125 17.5156 1.01562C17.7891 1.32812 17.9258 1.69922 17.9258 2.12891C17.9258 2.51953 17.7695 3.04688 17.457 3.71094C17.1445 4.375 16.7344 5.11719 16.2266 5.9375C15.7578 6.71875 15.25 7.53906 14.7031 8.39844C14.1563 9.25781 13.6484 10.0586 13.1797 10.8008C14.4688 12.0508 15.7578 13.2422 17.0469 14.375C18.3359 15.5078 19.5469 16.5039 20.6797 17.3633C21.1094 17.7539 21.3242 18.2031 21.3242 18.7109C21.3242 19.1797 21.1094 19.5898 20.6797 19.9414C20.2891 20.2539 19.8789 20.4102 19.4492 20.4102C19.0977 20.4102 18.6289 20.2148 18.043 19.8242C17.457 19.4336 16.7734 18.9258 15.9922 18.3008C15.25 17.6758 14.4688 16.9727 13.6484 16.1914C12.8281 15.4102 12.0078 14.6289 11.1875 13.8477C10.6016 14.7461 9.99609 15.6445 9.37109 16.543C8.78516 17.4023 8.19922 18.1836 7.61328 18.8867C7.06641 19.5508 6.53906 20.0781 6.03125 20.4688C5.52344 20.8984 5.07422 21.1133 4.68359 21.1133C4.25391 21.1133 3.86328 20.957 3.51172 20.6445C3.19922 20.3711 3.04297 20 3.04297 19.5312C3.04297 19.1406 3.17969 18.7305 3.45312 18.3008Z" fill="white"/>
</svg>
